<mxfile host="Electron" agent="Mozilla/5.0 (X11; Linux x86_64) AppleWebKit/537.36 (KHTML, like Gecko) draw.io/24.7.17 Chrome/128.0.6613.36 Electron/32.0.1 Safari/537.36" version="24.7.17">
  <diagram id="C5RBs43oDa-KdzZeNtuy" name="Page-1">
    <mxGraphModel dx="2049" dy="1199" grid="1" gridSize="10" guides="1" tooltips="1" connect="1" arrows="1" fold="1" page="1" pageScale="1" pageWidth="827" pageHeight="1169" math="0" shadow="0">
      <root>
        <mxCell id="WIyWlLk6GJQsqaUBKTNV-0" />
        <mxCell id="WIyWlLk6GJQsqaUBKTNV-1" parent="WIyWlLk6GJQsqaUBKTNV-0" />
        <mxCell id="WIyWlLk6GJQsqaUBKTNV-3" value="start" style="rounded=1;whiteSpace=wrap;html=1;fontSize=12;glass=0;strokeWidth=2;shadow=0;" parent="WIyWlLk6GJQsqaUBKTNV-1" vertex="1">
          <mxGeometry x="232.5" y="120" width="120" height="40" as="geometry" />
        </mxCell>
        <mxCell id="NejKWs3AC0AdlwhUtmeb-6" style="edgeStyle=orthogonalEdgeStyle;rounded=0;orthogonalLoop=1;jettySize=auto;html=1;strokeWidth=2;entryX=0.493;entryY=0.206;entryDx=0;entryDy=0;entryPerimeter=0;" parent="WIyWlLk6GJQsqaUBKTNV-1" source="NejKWs3AC0AdlwhUtmeb-3" target="NejKWs3AC0AdlwhUtmeb-5" edge="1">
          <mxGeometry relative="1" as="geometry" />
        </mxCell>
        <mxCell id="NejKWs3AC0AdlwhUtmeb-3" value="Display prompt" style="strokeWidth=2;html=1;shape=mxgraph.flowchart.display;whiteSpace=wrap;" parent="WIyWlLk6GJQsqaUBKTNV-1" vertex="1">
          <mxGeometry x="242.5" y="190" width="100" height="60" as="geometry" />
        </mxCell>
        <mxCell id="NejKWs3AC0AdlwhUtmeb-4" style="edgeStyle=orthogonalEdgeStyle;rounded=0;orthogonalLoop=1;jettySize=auto;html=1;entryX=0.5;entryY=0;entryDx=0;entryDy=0;entryPerimeter=0;strokeWidth=2;" parent="WIyWlLk6GJQsqaUBKTNV-1" source="WIyWlLk6GJQsqaUBKTNV-3" target="NejKWs3AC0AdlwhUtmeb-3" edge="1">
          <mxGeometry relative="1" as="geometry" />
        </mxCell>
        <mxCell id="NejKWs3AC0AdlwhUtmeb-5" value="&lt;div&gt;&lt;br&gt;&lt;/div&gt;manual input&lt;div&gt;from user&lt;/div&gt;" style="html=1;strokeWidth=2;shape=manualInput;whiteSpace=wrap;rounded=1;size=26;arcSize=11;" parent="WIyWlLk6GJQsqaUBKTNV-1" vertex="1">
          <mxGeometry x="237.5" y="280" width="110" height="70" as="geometry" />
        </mxCell>
        <mxCell id="NejKWs3AC0AdlwhUtmeb-13" value="&amp;nbsp;yes&amp;nbsp;" style="edgeStyle=orthogonalEdgeStyle;rounded=0;orthogonalLoop=1;jettySize=auto;html=1;entryX=1;entryY=0.5;entryDx=0;entryDy=0;entryPerimeter=0;strokeWidth=2;" parent="WIyWlLk6GJQsqaUBKTNV-1" source="NejKWs3AC0AdlwhUtmeb-7" target="NejKWs3AC0AdlwhUtmeb-24" edge="1">
          <mxGeometry x="-0.12" relative="1" as="geometry">
            <mxPoint as="offset" />
          </mxGeometry>
        </mxCell>
        <mxCell id="NejKWs3AC0AdlwhUtmeb-17" style="edgeStyle=orthogonalEdgeStyle;rounded=0;orthogonalLoop=1;jettySize=auto;html=1;entryX=0;entryY=0.5;entryDx=0;entryDy=0;strokeWidth=2;" parent="WIyWlLk6GJQsqaUBKTNV-1" source="NejKWs3AC0AdlwhUtmeb-7" target="NejKWs3AC0AdlwhUtmeb-16" edge="1">
          <mxGeometry relative="1" as="geometry" />
        </mxCell>
        <mxCell id="NejKWs3AC0AdlwhUtmeb-37" value="&amp;nbsp;no&amp;nbsp;" style="edgeStyle=orthogonalEdgeStyle;rounded=0;orthogonalLoop=1;jettySize=auto;html=1;" parent="WIyWlLk6GJQsqaUBKTNV-1" source="NejKWs3AC0AdlwhUtmeb-7" target="NejKWs3AC0AdlwhUtmeb-16" edge="1">
          <mxGeometry x="-0.1" relative="1" as="geometry">
            <mxPoint as="offset" />
          </mxGeometry>
        </mxCell>
        <mxCell id="NejKWs3AC0AdlwhUtmeb-7" value="input is ctrl+D&lt;br&gt;EOF ?" style="strokeWidth=2;html=1;shape=mxgraph.flowchart.decision;whiteSpace=wrap;" parent="WIyWlLk6GJQsqaUBKTNV-1" vertex="1">
          <mxGeometry x="222.5" y="390" width="140" height="90" as="geometry" />
        </mxCell>
        <mxCell id="NejKWs3AC0AdlwhUtmeb-8" value="end" style="rounded=1;whiteSpace=wrap;html=1;fontSize=12;glass=0;strokeWidth=2;shadow=0;" parent="WIyWlLk6GJQsqaUBKTNV-1" vertex="1">
          <mxGeometry x="42.5" y="585" width="110" height="40" as="geometry" />
        </mxCell>
        <mxCell id="NejKWs3AC0AdlwhUtmeb-15" style="edgeStyle=orthogonalEdgeStyle;rounded=0;orthogonalLoop=1;jettySize=auto;html=1;strokeWidth=2;" parent="WIyWlLk6GJQsqaUBKTNV-1" source="NejKWs3AC0AdlwhUtmeb-12" target="NejKWs3AC0AdlwhUtmeb-8" edge="1">
          <mxGeometry relative="1" as="geometry" />
        </mxCell>
        <mxCell id="NejKWs3AC0AdlwhUtmeb-12" value="exit program" style="rounded=0;whiteSpace=wrap;html=1;strokeWidth=2;" parent="WIyWlLk6GJQsqaUBKTNV-1" vertex="1">
          <mxGeometry x="42.5" y="500" width="110" height="50" as="geometry" />
        </mxCell>
        <mxCell id="NejKWs3AC0AdlwhUtmeb-14" style="edgeStyle=orthogonalEdgeStyle;rounded=0;orthogonalLoop=1;jettySize=auto;html=1;entryX=0.5;entryY=0;entryDx=0;entryDy=0;entryPerimeter=0;strokeWidth=2;" parent="WIyWlLk6GJQsqaUBKTNV-1" source="NejKWs3AC0AdlwhUtmeb-5" target="NejKWs3AC0AdlwhUtmeb-7" edge="1">
          <mxGeometry relative="1" as="geometry" />
        </mxCell>
        <mxCell id="1cIo2UN7zuWIZ6eMSads-12" style="edgeStyle=orthogonalEdgeStyle;rounded=0;orthogonalLoop=1;jettySize=auto;html=1;entryX=0;entryY=0.5;entryDx=0;entryDy=0;strokeWidth=2;" edge="1" parent="WIyWlLk6GJQsqaUBKTNV-1" source="NejKWs3AC0AdlwhUtmeb-16" target="z6jRxO_ORCMyOcZw1Sx6-1">
          <mxGeometry relative="1" as="geometry" />
        </mxCell>
        <mxCell id="NejKWs3AC0AdlwhUtmeb-16" value="clean input&lt;div&gt;(remove \n)&lt;/div&gt;" style="rounded=0;whiteSpace=wrap;html=1;strokeWidth=2;" parent="WIyWlLk6GJQsqaUBKTNV-1" vertex="1">
          <mxGeometry x="425" y="410" width="110" height="50" as="geometry" />
        </mxCell>
        <mxCell id="1cIo2UN7zuWIZ6eMSads-51" style="edgeStyle=orthogonalEdgeStyle;rounded=0;orthogonalLoop=1;jettySize=auto;html=1;strokeWidth=2;" edge="1" parent="WIyWlLk6GJQsqaUBKTNV-1" source="NejKWs3AC0AdlwhUtmeb-20" target="NejKWs3AC0AdlwhUtmeb-39">
          <mxGeometry relative="1" as="geometry">
            <Array as="points">
              <mxPoint x="235" y="755" />
            </Array>
          </mxGeometry>
        </mxCell>
        <mxCell id="NejKWs3AC0AdlwhUtmeb-20" value="fork fail ?" style="strokeWidth=2;html=1;shape=mxgraph.flowchart.decision;whiteSpace=wrap;" parent="WIyWlLk6GJQsqaUBKTNV-1" vertex="1">
          <mxGeometry x="275" y="710" width="140" height="90" as="geometry" />
        </mxCell>
        <mxCell id="NejKWs3AC0AdlwhUtmeb-25" style="edgeStyle=orthogonalEdgeStyle;rounded=0;orthogonalLoop=1;jettySize=auto;html=1;entryX=0.5;entryY=0;entryDx=0;entryDy=0;strokeWidth=2;" parent="WIyWlLk6GJQsqaUBKTNV-1" source="NejKWs3AC0AdlwhUtmeb-24" target="NejKWs3AC0AdlwhUtmeb-12" edge="1">
          <mxGeometry relative="1" as="geometry" />
        </mxCell>
        <mxCell id="NejKWs3AC0AdlwhUtmeb-24" value="Display goodbye message" style="strokeWidth=2;html=1;shape=mxgraph.flowchart.display;whiteSpace=wrap;" parent="WIyWlLk6GJQsqaUBKTNV-1" vertex="1">
          <mxGeometry x="35" y="405" width="125" height="60" as="geometry" />
        </mxCell>
        <mxCell id="z6jRxO_ORCMyOcZw1Sx6-14" style="edgeStyle=orthogonalEdgeStyle;rounded=0;orthogonalLoop=1;jettySize=auto;html=1;entryX=0;entryY=0.5;entryDx=0;entryDy=0;strokeWidth=2;" parent="WIyWlLk6GJQsqaUBKTNV-1" source="NejKWs3AC0AdlwhUtmeb-26" target="z6jRxO_ORCMyOcZw1Sx6-13" edge="1">
          <mxGeometry relative="1" as="geometry" />
        </mxCell>
        <mxCell id="NejKWs3AC0AdlwhUtmeb-26" value="Display fork error message" style="strokeWidth=2;html=1;shape=mxgraph.flowchart.display;whiteSpace=wrap;" parent="WIyWlLk6GJQsqaUBKTNV-1" vertex="1">
          <mxGeometry x="475" y="725" width="125" height="60" as="geometry" />
        </mxCell>
        <mxCell id="NejKWs3AC0AdlwhUtmeb-27" style="edgeStyle=orthogonalEdgeStyle;rounded=0;orthogonalLoop=1;jettySize=auto;html=1;entryX=0;entryY=0.5;entryDx=0;entryDy=0;entryPerimeter=0;strokeWidth=2;" parent="WIyWlLk6GJQsqaUBKTNV-1" source="NejKWs3AC0AdlwhUtmeb-20" target="NejKWs3AC0AdlwhUtmeb-26" edge="1">
          <mxGeometry relative="1" as="geometry" />
        </mxCell>
        <mxCell id="NejKWs3AC0AdlwhUtmeb-35" value="&amp;nbsp;yes&amp;nbsp;" style="edgeLabel;html=1;align=center;verticalAlign=middle;resizable=0;points=[];" parent="NejKWs3AC0AdlwhUtmeb-27" vertex="1" connectable="0">
          <mxGeometry x="-0.2997" y="3" relative="1" as="geometry">
            <mxPoint x="4" y="3" as="offset" />
          </mxGeometry>
        </mxCell>
        <mxCell id="NejKWs3AC0AdlwhUtmeb-39" value="execute&lt;div&gt;command&lt;/div&gt;" style="rounded=0;whiteSpace=wrap;html=1;strokeWidth=2;" parent="WIyWlLk6GJQsqaUBKTNV-1" vertex="1">
          <mxGeometry x="180" y="810" width="110" height="50" as="geometry" />
        </mxCell>
        <mxCell id="NejKWs3AC0AdlwhUtmeb-59" value="no" style="edgeStyle=orthogonalEdgeStyle;rounded=0;orthogonalLoop=1;jettySize=auto;html=1;entryX=0.5;entryY=0;entryDx=0;entryDy=0;strokeWidth=2;" parent="WIyWlLk6GJQsqaUBKTNV-1" source="NejKWs3AC0AdlwhUtmeb-41" target="NejKWs3AC0AdlwhUtmeb-58" edge="1">
          <mxGeometry x="-0.3333" relative="1" as="geometry">
            <mxPoint as="offset" />
          </mxGeometry>
        </mxCell>
        <mxCell id="NejKWs3AC0AdlwhUtmeb-41" value="&lt;b&gt;&lt;i&gt;execve&lt;/i&gt;&lt;/b&gt; failed ?&lt;div&gt;&lt;span style=&quot;background-color: initial;&quot;&gt;(command&amp;nbsp;&lt;/span&gt;&lt;/div&gt;&lt;div&gt;&lt;span style=&quot;background-color: initial;&quot;&gt;execution)&lt;/span&gt;&lt;/div&gt;" style="strokeWidth=2;html=1;shape=mxgraph.flowchart.decision;whiteSpace=wrap;" parent="WIyWlLk6GJQsqaUBKTNV-1" vertex="1">
          <mxGeometry x="165" y="915" width="140" height="90" as="geometry" />
        </mxCell>
        <mxCell id="NejKWs3AC0AdlwhUtmeb-42" style="edgeStyle=orthogonalEdgeStyle;rounded=0;orthogonalLoop=1;jettySize=auto;html=1;entryX=0.5;entryY=0;entryDx=0;entryDy=0;entryPerimeter=0;strokeWidth=2;" parent="WIyWlLk6GJQsqaUBKTNV-1" source="NejKWs3AC0AdlwhUtmeb-39" target="NejKWs3AC0AdlwhUtmeb-41" edge="1">
          <mxGeometry relative="1" as="geometry" />
        </mxCell>
        <mxCell id="NejKWs3AC0AdlwhUtmeb-49" style="edgeStyle=orthogonalEdgeStyle;rounded=0;orthogonalLoop=1;jettySize=auto;html=1;entryX=0;entryY=0.5;entryDx=0;entryDy=0;strokeWidth=2;" parent="WIyWlLk6GJQsqaUBKTNV-1" source="NejKWs3AC0AdlwhUtmeb-45" target="NejKWs3AC0AdlwhUtmeb-48" edge="1">
          <mxGeometry relative="1" as="geometry" />
        </mxCell>
        <mxCell id="NejKWs3AC0AdlwhUtmeb-45" value="Display execve&lt;div&gt;error&amp;nbsp;&lt;span style=&quot;background-color: initial;&quot;&gt;message&lt;/span&gt;&lt;/div&gt;" style="strokeWidth=2;html=1;shape=mxgraph.flowchart.display;whiteSpace=wrap;" parent="WIyWlLk6GJQsqaUBKTNV-1" vertex="1">
          <mxGeometry x="374" y="930" width="125" height="60" as="geometry" />
        </mxCell>
        <mxCell id="z6jRxO_ORCMyOcZw1Sx6-12" style="edgeStyle=orthogonalEdgeStyle;rounded=0;orthogonalLoop=1;jettySize=auto;html=1;entryX=0;entryY=0.5;entryDx=0;entryDy=0;strokeWidth=2;" parent="WIyWlLk6GJQsqaUBKTNV-1" source="NejKWs3AC0AdlwhUtmeb-48" target="z6jRxO_ORCMyOcZw1Sx6-11" edge="1">
          <mxGeometry relative="1" as="geometry" />
        </mxCell>
        <mxCell id="NejKWs3AC0AdlwhUtmeb-48" value="Exit child process" style="rounded=0;whiteSpace=wrap;html=1;strokeWidth=2;" parent="WIyWlLk6GJQsqaUBKTNV-1" vertex="1">
          <mxGeometry x="535" y="935" width="110" height="50" as="geometry" />
        </mxCell>
        <mxCell id="z6jRxO_ORCMyOcZw1Sx6-9" style="edgeStyle=orthogonalEdgeStyle;rounded=0;orthogonalLoop=1;jettySize=auto;html=1;entryX=0;entryY=0.5;entryDx=0;entryDy=0;strokeWidth=2;" parent="WIyWlLk6GJQsqaUBKTNV-1" source="NejKWs3AC0AdlwhUtmeb-58" target="z6jRxO_ORCMyOcZw1Sx6-8" edge="1">
          <mxGeometry relative="1" as="geometry" />
        </mxCell>
        <mxCell id="NejKWs3AC0AdlwhUtmeb-58" value="execute command&amp;nbsp;&lt;div&gt;in child process&amp;nbsp;&lt;/div&gt;" style="rounded=0;whiteSpace=wrap;html=1;strokeWidth=2;" parent="WIyWlLk6GJQsqaUBKTNV-1" vertex="1">
          <mxGeometry x="180" y="1050" width="110" height="60" as="geometry" />
        </mxCell>
        <mxCell id="NejKWs3AC0AdlwhUtmeb-67" style="edgeStyle=orthogonalEdgeStyle;rounded=0;orthogonalLoop=1;jettySize=auto;html=1;dashed=1;strokeWidth=2;" parent="WIyWlLk6GJQsqaUBKTNV-1" source="NejKWs3AC0AdlwhUtmeb-66" target="NejKWs3AC0AdlwhUtmeb-58" edge="1">
          <mxGeometry relative="1" as="geometry" />
        </mxCell>
        <mxCell id="NejKWs3AC0AdlwhUtmeb-66" value="&lt;span style=&quot;background-color: initial;&quot;&gt;parent process&amp;nbsp;&lt;/span&gt;&lt;br&gt;&lt;span style=&quot;background-color: initial;&quot;&gt;is waiting&amp;nbsp;&lt;/span&gt;&lt;br&gt;&lt;span style=&quot;background-color: initial;&quot;&gt;until the end&amp;nbsp;&lt;/span&gt;&lt;br&gt;&lt;span style=&quot;background-color: initial;&quot;&gt;of child process&amp;nbsp;&lt;/span&gt;&lt;div&gt;&lt;div&gt;execution&amp;nbsp;&lt;/div&gt;&lt;/div&gt;" style="strokeWidth=2;html=1;shape=mxgraph.flowchart.annotation_1;align=right;pointerEvents=1;flipH=1;dashed=1;" parent="WIyWlLk6GJQsqaUBKTNV-1" vertex="1">
          <mxGeometry x="100" y="1030" width="20" height="100" as="geometry" />
        </mxCell>
        <mxCell id="NejKWs3AC0AdlwhUtmeb-70" value="&lt;h1&gt;Tamagoshell - Flowcharts&lt;/h1&gt;" style="rounded=0;whiteSpace=wrap;html=1;" parent="WIyWlLk6GJQsqaUBKTNV-1" vertex="1">
          <mxGeometry x="40" y="40" width="760" height="40" as="geometry" />
        </mxCell>
        <mxCell id="1cIo2UN7zuWIZ6eMSads-44" style="edgeStyle=orthogonalEdgeStyle;rounded=0;orthogonalLoop=1;jettySize=auto;html=1;entryX=0.5;entryY=0;entryDx=0;entryDy=0;strokeWidth=2;" edge="1" parent="WIyWlLk6GJQsqaUBKTNV-1" source="z6jRxO_ORCMyOcZw1Sx6-1" target="1cIo2UN7zuWIZ6eMSads-0">
          <mxGeometry relative="1" as="geometry" />
        </mxCell>
        <mxCell id="z6jRxO_ORCMyOcZw1Sx6-1" value="Split user input into arguments&amp;nbsp;" style="rounded=0;whiteSpace=wrap;html=1;strokeWidth=2;" parent="WIyWlLk6GJQsqaUBKTNV-1" vertex="1">
          <mxGeometry x="575" y="410" width="110" height="50" as="geometry" />
        </mxCell>
        <mxCell id="1cIo2UN7zuWIZ6eMSads-15" style="edgeStyle=orthogonalEdgeStyle;rounded=0;orthogonalLoop=1;jettySize=auto;html=1;entryX=0.5;entryY=0;entryDx=0;entryDy=0;dashed=1;strokeWidth=2;" edge="1" parent="WIyWlLk6GJQsqaUBKTNV-1" source="z6jRxO_ORCMyOcZw1Sx6-5" target="z6jRxO_ORCMyOcZw1Sx6-1">
          <mxGeometry relative="1" as="geometry">
            <Array as="points">
              <mxPoint x="630" y="330" />
            </Array>
          </mxGeometry>
        </mxCell>
        <mxCell id="z6jRxO_ORCMyOcZw1Sx6-5" value="transforms the command&amp;nbsp;&lt;div&gt;entered by the user&amp;nbsp;&lt;/div&gt;&lt;div&gt;into an array&lt;span style=&quot;background-color: initial;&quot;&gt;&amp;nbsp;&lt;/span&gt;&lt;/div&gt;" style="strokeWidth=2;html=1;shape=mxgraph.flowchart.annotation_1;align=right;pointerEvents=1;flipH=1;dashed=1;" parent="WIyWlLk6GJQsqaUBKTNV-1" vertex="1">
          <mxGeometry x="560" y="290" width="20" height="75" as="geometry" />
        </mxCell>
        <mxCell id="z6jRxO_ORCMyOcZw1Sx6-8" value="A" style="ellipse;whiteSpace=wrap;html=1;aspect=fixed;strokeWidth=2;" parent="WIyWlLk6GJQsqaUBKTNV-1" vertex="1">
          <mxGeometry x="322.5" y="1060" width="40" height="40" as="geometry" />
        </mxCell>
        <mxCell id="z6jRxO_ORCMyOcZw1Sx6-11" value="A" style="ellipse;whiteSpace=wrap;html=1;aspect=fixed;strokeWidth=2;" parent="WIyWlLk6GJQsqaUBKTNV-1" vertex="1">
          <mxGeometry x="690" y="940" width="40" height="40" as="geometry" />
        </mxCell>
        <mxCell id="z6jRxO_ORCMyOcZw1Sx6-13" value="A" style="ellipse;whiteSpace=wrap;html=1;aspect=fixed;strokeWidth=2;" parent="WIyWlLk6GJQsqaUBKTNV-1" vertex="1">
          <mxGeometry x="705" y="735" width="40" height="40" as="geometry" />
        </mxCell>
        <mxCell id="z6jRxO_ORCMyOcZw1Sx6-15" value="A" style="ellipse;whiteSpace=wrap;html=1;aspect=fixed;strokeWidth=2;" parent="WIyWlLk6GJQsqaUBKTNV-1" vertex="1">
          <mxGeometry x="374" y="200" width="40" height="40" as="geometry" />
        </mxCell>
        <mxCell id="z6jRxO_ORCMyOcZw1Sx6-17" style="edgeStyle=orthogonalEdgeStyle;rounded=0;orthogonalLoop=1;jettySize=auto;html=1;entryX=1;entryY=0.5;entryDx=0;entryDy=0;entryPerimeter=0;strokeWidth=2;" parent="WIyWlLk6GJQsqaUBKTNV-1" source="z6jRxO_ORCMyOcZw1Sx6-15" target="NejKWs3AC0AdlwhUtmeb-3" edge="1">
          <mxGeometry relative="1" as="geometry" />
        </mxCell>
        <mxCell id="ZhpYYlsYCHpHP4ABJbQ_-16" value="&amp;nbsp;yes&amp;nbsp;" style="edgeStyle=orthogonalEdgeStyle;rounded=0;orthogonalLoop=1;jettySize=auto;html=1;entryX=1;entryY=0.5;entryDx=0;entryDy=0;strokeWidth=2;" parent="WIyWlLk6GJQsqaUBKTNV-1" source="ZhpYYlsYCHpHP4ABJbQ_-9" target="ZhpYYlsYCHpHP4ABJbQ_-13" edge="1">
          <mxGeometry relative="1" as="geometry" />
        </mxCell>
        <mxCell id="ZhpYYlsYCHpHP4ABJbQ_-9" value="command is found&lt;div&gt;by &lt;b&gt;&lt;i&gt;_which&lt;/i&gt;&lt;/b&gt;&lt;/div&gt;" style="strokeWidth=2;html=1;shape=mxgraph.flowchart.decision;whiteSpace=wrap;" parent="WIyWlLk6GJQsqaUBKTNV-1" vertex="1">
          <mxGeometry x="465" y="598.75" width="140" height="90" as="geometry" />
        </mxCell>
        <mxCell id="1cIo2UN7zuWIZ6eMSads-1" style="edgeStyle=orthogonalEdgeStyle;rounded=0;orthogonalLoop=1;jettySize=auto;html=1;entryX=0.5;entryY=0;entryDx=0;entryDy=0;strokeWidth=2;" edge="1" parent="WIyWlLk6GJQsqaUBKTNV-1" source="ZhpYYlsYCHpHP4ABJbQ_-10" target="z6jRxO_ORCMyOcZw1Sx6-13">
          <mxGeometry relative="1" as="geometry" />
        </mxCell>
        <mxCell id="ZhpYYlsYCHpHP4ABJbQ_-10" value="Display error message&lt;div&gt;&quot;command not found&quot;&lt;/div&gt;" style="strokeWidth=2;html=1;shape=mxgraph.flowchart.display;whiteSpace=wrap;" parent="WIyWlLk6GJQsqaUBKTNV-1" vertex="1">
          <mxGeometry x="650" y="607.5" width="150" height="72.5" as="geometry" />
        </mxCell>
        <mxCell id="ZhpYYlsYCHpHP4ABJbQ_-11" value="&amp;nbsp;no&amp;nbsp;" style="edgeStyle=orthogonalEdgeStyle;rounded=0;orthogonalLoop=1;jettySize=auto;html=1;entryX=0;entryY=0.5;entryDx=0;entryDy=0;entryPerimeter=0;strokeWidth=2;" parent="WIyWlLk6GJQsqaUBKTNV-1" source="ZhpYYlsYCHpHP4ABJbQ_-9" target="ZhpYYlsYCHpHP4ABJbQ_-10" edge="1">
          <mxGeometry x="-0.3505" relative="1" as="geometry">
            <mxPoint as="offset" />
          </mxGeometry>
        </mxCell>
        <mxCell id="ZhpYYlsYCHpHP4ABJbQ_-13" value="fork process" style="rounded=0;whiteSpace=wrap;html=1;strokeWidth=2;" parent="WIyWlLk6GJQsqaUBKTNV-1" vertex="1">
          <mxGeometry x="290" y="618.75" width="110" height="50" as="geometry" />
        </mxCell>
        <mxCell id="ZhpYYlsYCHpHP4ABJbQ_-15" style="edgeStyle=orthogonalEdgeStyle;rounded=0;orthogonalLoop=1;jettySize=auto;html=1;entryX=0.5;entryY=0;entryDx=0;entryDy=0;entryPerimeter=0;strokeWidth=2;" parent="WIyWlLk6GJQsqaUBKTNV-1" source="ZhpYYlsYCHpHP4ABJbQ_-13" target="NejKWs3AC0AdlwhUtmeb-20" edge="1">
          <mxGeometry relative="1" as="geometry" />
        </mxCell>
        <mxCell id="ZhpYYlsYCHpHP4ABJbQ_-18" style="edgeStyle=orthogonalEdgeStyle;rounded=0;orthogonalLoop=1;jettySize=auto;html=1;entryX=0;entryY=0.5;entryDx=0;entryDy=0;entryPerimeter=0;strokeWidth=2;" parent="WIyWlLk6GJQsqaUBKTNV-1" source="NejKWs3AC0AdlwhUtmeb-41" target="NejKWs3AC0AdlwhUtmeb-45" edge="1">
          <mxGeometry relative="1" as="geometry" />
        </mxCell>
        <mxCell id="1cIo2UN7zuWIZ6eMSads-18" value="&amp;nbsp;yes&amp;nbsp;" style="edgeLabel;html=1;align=center;verticalAlign=middle;resizable=0;points=[];" vertex="1" connectable="0" parent="ZhpYYlsYCHpHP4ABJbQ_-18">
          <mxGeometry x="-0.4696" y="-1" relative="1" as="geometry">
            <mxPoint x="4" y="-1" as="offset" />
          </mxGeometry>
        </mxCell>
        <mxCell id="1cIo2UN7zuWIZ6eMSads-0" value="&lt;b&gt;&lt;i&gt;_which&lt;/i&gt;&lt;/b&gt;&lt;div&gt;(on argv[0])&lt;/div&gt;" style="shape=process;whiteSpace=wrap;html=1;backgroundOutline=1;strokeWidth=2;" vertex="1" parent="WIyWlLk6GJQsqaUBKTNV-1">
          <mxGeometry x="577.5" y="495" width="105" height="60" as="geometry" />
        </mxCell>
        <mxCell id="1cIo2UN7zuWIZ6eMSads-14" style="edgeStyle=orthogonalEdgeStyle;rounded=0;orthogonalLoop=1;jettySize=auto;html=1;entryX=0.5;entryY=0;entryDx=0;entryDy=0;entryPerimeter=0;strokeWidth=2;" edge="1" parent="WIyWlLk6GJQsqaUBKTNV-1" source="1cIo2UN7zuWIZ6eMSads-0" target="ZhpYYlsYCHpHP4ABJbQ_-9">
          <mxGeometry relative="1" as="geometry" />
        </mxCell>
        <mxCell id="1cIo2UN7zuWIZ6eMSads-47" style="edgeStyle=orthogonalEdgeStyle;rounded=0;orthogonalLoop=1;jettySize=auto;html=1;entryX=0;entryY=0.5;entryDx=0;entryDy=0;dashed=1;strokeWidth=2;" edge="1" parent="WIyWlLk6GJQsqaUBKTNV-1" source="1cIo2UN7zuWIZ6eMSads-46" target="NejKWs3AC0AdlwhUtmeb-39">
          <mxGeometry relative="1" as="geometry" />
        </mxCell>
        <mxCell id="1cIo2UN7zuWIZ6eMSads-46" value="&lt;b&gt;&lt;i&gt;execve&lt;/i&gt;&lt;/b&gt; executes the&amp;nbsp;&lt;div&gt;&lt;span style=&quot;background-color: initial;&quot;&gt;program by&amp;nbsp;&lt;/span&gt;&lt;span style=&quot;background-color: initial;&quot;&gt;using the&amp;nbsp;&lt;/span&gt;&lt;/div&gt;&lt;div&gt;&lt;span style=&quot;background-color: initial;&quot;&gt;absolute path&amp;nbsp;&lt;/span&gt;&lt;span style=&quot;background-color: initial;&quot;&gt;provided&amp;nbsp;&lt;/span&gt;&lt;/div&gt;&lt;div&gt;&lt;span style=&quot;background-color: initial;&quot;&gt;by the previous&amp;nbsp;&lt;/span&gt;&lt;/div&gt;&lt;div&gt;&lt;b style=&quot;background-color: initial;&quot;&gt;&lt;i&gt;_which&lt;/i&gt;&lt;/b&gt;&lt;span style=&quot;background-color: initial;&quot;&gt;&amp;nbsp;&lt;/span&gt;&lt;span style=&quot;background-color: initial;&quot;&gt;command&amp;nbsp;&lt;/span&gt;&lt;/div&gt;" style="strokeWidth=2;html=1;shape=mxgraph.flowchart.annotation_1;align=right;pointerEvents=1;flipH=1;dashed=1;" vertex="1" parent="WIyWlLk6GJQsqaUBKTNV-1">
          <mxGeometry x="110" y="792.5" width="27.5" height="85" as="geometry" />
        </mxCell>
      </root>
    </mxGraphModel>
  </diagram>
</mxfile>
